<svg xmlns="http://www.w3.org/2000/svg" viewBox="0 0 24 24" shape-rendering="crispEdges" width="256" height="256"><rect width="100%" height="100%" fill="#b5eaea" /><rect width="1" height="1" x="9" y="18" fill="#000000" /><rect width="4" height="1" x="10" y="18" fill="#f38ba0" /><rect width="1" height="1" x="14" y="18" fill="#000000" /><rect width="1" height="1" x="8" y="19" fill="#000000" /><rect width="6" height="1" x="9" y="19" fill="#edf6e5" /><rect width="1" height="1" x="15" y="19" fill="#000000" /><rect width="1" height="1" x="7" y="20" fill="#000000" /><rect width="8" height="1" x="8" y="20" fill="#edf6e5" /><rect width="1" height="1" x="16" y="20" fill="#000000" /><rect width="1" height="1" x="6" y="21" fill="#000000" /><rect width="9" height="1" x="7" y="21" fill="#edf6e5" /><rect width="1" height="1" x="16" y="21" fill="#000000" /><rect width="1" height="1" x="6" y="22" fill="#000000" /><rect width="9" height="1" x="7" y="22" fill="#edf6e5" /><rect width="1" height="1" x="16" y="22" fill="#000000" /><rect width="1" height="1" x="6" y="23" fill="#000000" /><rect width="9" height="1" x="7" y="23" fill="#edf6e5" /><rect width="1" height="1" x="16" y="23" fill="#000000" /><rect width="10" height="1" x="7" y="6" fill="#000000" /><rect width="1" height="1" x="6" y="7" fill="#000000" /><rect width="10" height="1" x="7" y="7" fill="#edf6e5" /><rect width="1" height="1" x="17" y="7" fill="#000000" /><rect width="1" height="1" x="5" y="8" fill="#000000" /><rect width="12" height="1" x="6" y="8" fill="#edf6e5" /><rect width="1" height="1" x="18" y="8" fill="#000000" /><rect width="1" height="1" x="4" y="9" fill="#000000" /><rect width="14" height="1" x="5" y="9" fill="#edf6e5" /><rect width="1" height="1" x="19" y="9" fill="#000000" /><rect width="1" height="1" x="4" y="10" fill="#000000" /><rect width="14" height="1" x="5" y="10" fill="#edf6e5" /><rect width="1" height="1" x="19" y="10" fill="#000000" /><rect width="1" height="1" x="4" y="11" fill="#000000" /><rect width="14" height="1" x="5" y="11" fill="#edf6e5" /><rect width="1" height="1" x="19" y="11" fill="#000000" /><rect width="1" height="1" x="4" y="12" fill="#000000" /><rect width="14" height="1" x="5" y="12" fill="#edf6e5" /><rect width="1" height="1" x="19" y="12" fill="#000000" /><rect width="1" height="1" x="4" y="13" fill="#000000" /><rect width="14" height="1" x="5" y="13" fill="#edf6e5" /><rect width="1" height="1" x="19" y="13" fill="#000000" /><rect width="1" height="1" x="4" y="14" fill="#000000" /><rect width="14" height="1" x="5" y="14" fill="#edf6e5" /><rect width="1" height="1" x="19" y="14" fill="#000000" /><rect width="1" height="1" x="5" y="15" fill="#000000" /><rect width="12" height="1" x="6" y="15" fill="#edf6e5" /><rect width="1" height="1" x="18" y="15" fill="#000000" /><rect width="1" height="1" x="6" y="16" fill="#000000" /><rect width="10" height="1" x="7" y="16" fill="#edf6e5" /><rect width="1" height="1" x="17" y="16" fill="#000000" /><rect width="10" height="1" x="7" y="17" fill="#000000" /><rect width="3" height="1" x="7" y="9" fill="#000000" /><rect width="3" height="1" x="15" y="9" fill="#000000" /><rect width="3" height="1" x="7" y="10" fill="#000000" /><rect width="3" height="1" x="15" y="10" fill="#000000" /><rect width="1" height="1" x="8" y="11" fill="#000000" /><rect width="1" height="1" x="16" y="11" fill="#000000" /><rect width="1" height="1" x="10" y="13" fill="#000000" /><rect width="1" height="1" x="12" y="13" fill="#000000" /><rect width="1" height="1" x="14" y="13" fill="#000000" /><rect width="1" height="1" x="11" y="14" fill="#000000" /><rect width="1" height="1" x="13" y="14" fill="#000000" /><rect width="1" height="1" x="8" y="4" fill="#000000" /><rect width="1" height="1" x="15" y="4" fill="#000000" /><rect width="1" height="1" x="7" y="5" fill="#000000" /><rect width="1" height="1" x="8" y="5" fill="#edf6e5" /><rect width="1" height="1" x="9" y="5" fill="#000000" /><rect width="1" height="1" x="14" y="5" fill="#000000" /><rect width="1" height="1" x="15" y="5" fill="#edf6e5" /><rect width="1" height="1" x="16" y="5" fill="#000000" /></svg>