<svg xmlns="http://www.w3.org/2000/svg" viewBox="0 0 24 24" shape-rendering="crispEdges" width="256" height="256"><rect width="100%" height="100%" fill="#c3eab5" /><rect width="1" height="1" x="9" y="18" fill="#000000" /><rect width="4" height="1" x="10" y="18" fill="#c18bf3" /><rect width="1" height="1" x="14" y="18" fill="#000000" /><rect width="1" height="1" x="8" y="19" fill="#000000" /><rect width="6" height="1" x="9" y="19" fill="#f6e9e5" /><rect width="1" height="1" x="15" y="19" fill="#000000" /><rect width="1" height="1" x="7" y="20" fill="#000000" /><rect width="8" height="1" x="8" y="20" fill="#f6e9e5" /><rect width="1" height="1" x="16" y="20" fill="#000000" /><rect width="1" height="1" x="6" y="21" fill="#000000" /><rect width="9" height="1" x="7" y="21" fill="#f6e9e5" /><rect width="1" height="1" x="16" y="21" fill="#000000" /><rect width="1" height="1" x="6" y="22" fill="#000000" /><rect width="9" height="1" x="7" y="22" fill="#f6e9e5" /><rect width="1" height="1" x="16" y="22" fill="#000000" /><rect width="1" height="1" x="6" y="23" fill="#000000" /><rect width="9" height="1" x="7" y="23" fill="#f6e9e5" /><rect width="1" height="1" x="16" y="23" fill="#000000" /><rect width="16" height="1" x="4" y="6" fill="#000000" /><rect width="1" height="1" x="3" y="7" fill="#000000" /><rect width="16" height="1" x="4" y="7" fill="#f6e9e5" /><rect width="1" height="1" x="20" y="7" fill="#000000" /><rect width="1" height="1" x="3" y="8" fill="#000000" /><rect width="16" height="1" x="4" y="8" fill="#f6e9e5" /><rect width="1" height="1" x="20" y="8" fill="#000000" /><rect width="1" height="1" x="3" y="9" fill="#000000" /><rect width="16" height="1" x="4" y="9" fill="#f6e9e5" /><rect width="1" height="1" x="20" y="9" fill="#000000" /><rect width="1" height="1" x="3" y="10" fill="#000000" /><rect width="16" height="1" x="4" y="10" fill="#f6e9e5" /><rect width="1" height="1" x="20" y="10" fill="#000000" /><rect width="1" height="1" x="3" y="11" fill="#000000" /><rect width="16" height="1" x="4" y="11" fill="#f6e9e5" /><rect width="1" height="1" x="20" y="11" fill="#000000" /><rect width="1" height="1" x="4" y="12" fill="#000000" /><rect width="14" height="1" x="5" y="12" fill="#f6e9e5" /><rect width="1" height="1" x="19" y="12" fill="#000000" /><rect width="1" height="1" x="4" y="13" fill="#000000" /><rect width="14" height="1" x="5" y="13" fill="#f6e9e5" /><rect width="1" height="1" x="19" y="13" fill="#000000" /><rect width="1" height="1" x="5" y="14" fill="#000000" /><rect width="12" height="1" x="6" y="14" fill="#f6e9e5" /><rect width="1" height="1" x="18" y="14" fill="#000000" /><rect width="1" height="1" x="5" y="15" fill="#000000" /><rect width="12" height="1" x="6" y="15" fill="#f6e9e5" /><rect width="1" height="1" x="18" y="15" fill="#000000" /><rect width="1" height="1" x="6" y="16" fill="#000000" /><rect width="10" height="1" x="7" y="16" fill="#f6e9e5" /><rect width="1" height="1" x="17" y="16" fill="#000000" /><rect width="10" height="1" x="7" y="17" fill="#000000" /><rect width="1" height="1" x="7" y="11" fill="#000000" /><rect width="1" height="1" x="9" y="11" fill="#000000" /><rect width="1" height="1" x="15" y="11" fill="#000000" /><rect width="1" height="1" x="17" y="11" fill="#000000" /><rect width="1" height="1" x="8" y="12" fill="#000000" /><rect width="1" height="1" x="16" y="12" fill="#000000" /><rect width="4" height="1" x="11" y="13" fill="#000000" /><rect width="1" height="1" x="11" y="14" fill="#000000" /><rect width="2" height="1" x="12" y="14" fill="#c18bf3" /><rect width="1" height="1" x="14" y="14" fill="#000000" /><rect width="2" height="1" x="12" y="15" fill="#000000" /><rect width="1" height="1" x="8" y="3" fill="#000000" /><rect width="1" height="1" x="15" y="3" fill="#000000" /><rect width="1" height="1" x="7" y="4" fill="#000000" /><rect width="1" height="1" x="8" y="4" fill="#f6e9e5" /><rect width="1" height="1" x="9" y="4" fill="#000000" /><rect width="1" height="1" x="14" y="4" fill="#000000" /><rect width="1" height="1" x="15" y="4" fill="#f6e9e5" /><rect width="1" height="1" x="16" y="4" fill="#000000" /><rect width="1" height="1" x="7" y="5" fill="#000000" /><rect width="2" height="1" x="8" y="5" fill="#f6e9e5" /><rect width="1" height="1" x="10" y="5" fill="#000000" /><rect width="1" height="1" x="13" y="5" fill="#000000" /><rect width="2" height="1" x="14" y="5" fill="#f6e9e5" /><rect width="1" height="1" x="16" y="5" fill="#000000" /></svg>